<?xml version="1.0" encoding="UTF-8"?>
<svg id="Livello_1" xmlns="http://www.w3.org/2000/svg" xmlns:xlink="http://www.w3.org/1999/xlink" viewBox="0 0 200 162.73">
  <defs>
    <style>
      .cls-1 {
        fill: #009b61;
      }

      .cls-2 {
        fill: #fff;
      }

      .cls-3 {
        fill: url(#Sfumatura_senza_nome_4);
      }
    </style>
    <linearGradient id="Sfumatura_senza_nome_4" data-name="Sfumatura senza nome 4" x1="-37.85" y1="82.2" x2="-122.27" y2="82.2" gradientTransform="translate(189.8)" gradientUnits="userSpaceOnUse">
      <stop offset="0" stop-color="#10273c"/>
      <stop offset=".1" stop-color="#0d3d43"/>
      <stop offset=".27" stop-color="#08604e"/>
      <stop offset=".45" stop-color="#047c57"/>
      <stop offset=".63" stop-color="#02905d"/>
      <stop offset=".82" stop-color="#009c61"/>
      <stop offset="1" stop-color="#00a063"/>
    </linearGradient>
  </defs>
  <g>
    <path class="cls-2" d="M97.76,87.22c-2.45,1.49-4.42,3.01-5.97,4.58-3.62,3.64-5,7.53-5,11.75s1.92,7.6,5,9.73c1.9,1.33,4.25,2.16,6.85,2.38.46.04.92.06,1.4.06,5.75,0,10.97-2,15.25-5.62l-9.94-12.98-7.58-9.89Z"/>
    <path class="cls-2" d="M113.15,55.91c0-4.68-3.48-7.63-7.49-7.63-4.28,0-7.49,3.21-7.49,7.76,0,4.28,2.94,8.43,6.96,12.31,6.29-3.75,8.03-7.89,8.03-12.44Z"/>
    <path class="cls-2" d="M195.44,22.5c-3.04-5.53-7.05-9.96-12.03-13.3-4.98-3.34-10.63-5.71-16.94-7.11-6.32-1.39-12.75-2.09-19.31-2.09h-55.71l-20.4,79.79h-.73L49,0H0l45.73,128.98h40.85c-12.6-3.77-19.05-13.34-19.05-24.9,0-13.65,8.69-22.21,21.14-28.5-5.49-6.69-8.03-12.04-8.03-19.8s4.17-14.97,11.16-18.8c3.78-2.08,8.38-3.27,13.6-3.27,8.41,0,15.5,2.99,19.96,8.08,3.21,3.65,5.05,8.39,5.05,13.87,0,11.77-6.82,17.66-17.12,23.01l12.71,16.45c.64-1.04,1.37-2.45,1.93-4.2.44-1.39.65-2.42.77-3.47h18.48c6.68,0,13.21-.79,19.58-2.36,6.38-1.58,12.03-4.13,16.94-7.65,4.92-3.52,8.86-8.08,11.84-13.66,2.97-5.58,4.47-12.39,4.47-20.4s-1.52-15.33-4.56-20.86ZM153.09,52.01c-2.73,1.64-5.74,2.46-9.02,2.46h-9.11v-20.77h9.11c1.58,0,3.16.16,4.73.46,1.58.3,3.01.82,4.28,1.55,1.28.73,2.28,1.73,3,3.01.73,1.28,1.09,2.94,1.09,5.01,0,3.89-1.36,6.65-4.1,8.29Z"/>
  </g>
  <path class="cls-3" d="M136.83,109.16c5.22-8.56,7.25-11.02,8.05-21.72h-16.19c-.11,1.05-.33,2.08-.77,3.47-.56,1.75-1.29,3.16-1.93,4.2l-12.71-16.45c10.3-5.35,17.12-11.24,17.12-23.01,0-5.48-1.85-10.22-5.05-13.87-4.46-5.08-11.55-8.08-19.96-8.08-5.22,0-9.82,1.19-13.6,3.27-6.99,3.84-11.16,10.73-11.16,18.8s2.54,13.11,8.03,19.8c-12.44,6.29-21.14,14.85-21.14,28.5,0,11.56,6.45,21.14,19.05,24.9,3.73,1.12,7.99,1.72,12.79,1.72,4.25,0,8.33-.6,12.16-1.72,4.84-1.42,9.3-3.66,13.26-6.57l4.95,6.29h22.21l-15.12-19.53ZM105.65,48.28c4.01,0,7.49,2.94,7.49,7.63s-1.74,8.69-8.03,12.44c-4.02-3.88-6.96-8.03-6.96-12.31,0-4.55,3.21-7.76,7.49-7.76ZM100.04,115.71c-.47,0-.94-.02-1.4-.06-2.6-.22-4.94-1.06-6.85-2.38-3.08-2.14-5-5.55-5-9.73s1.38-8.1,5-11.75c1.56-1.57,3.52-3.09,5.97-4.58l7.58,9.89,9.94,12.98c-4.28,3.61-9.5,5.62-15.25,5.62Z"/>
  <g>
    <path class="cls-2" d="M11.17,156.62h-4.35L0,138.6h4.89l4.17,12.78h.1l4.15-12.78h4.81l-6.95,18.02Z"/>
    <path class="cls-2" d="M18.12,145.67c.75-.71,1.62-1.25,2.61-1.6.99-.36,2.01-.53,3.04-.53s1.97.13,2.71.39c.74.26,1.34.67,1.79,1.22.46.55.79,1.25,1.01,2.09.21.84.32,1.84.32,2.99v6.39h-3.82v-1.35h-.08c-.32.53-.81.93-1.46,1.22-.65.29-1.36.43-2.13.43-.51,0-1.04-.07-1.58-.2-.54-.14-1.04-.36-1.49-.66-.45-.31-.82-.71-1.11-1.22-.29-.51-.43-1.14-.43-1.88,0-.92.25-1.65.75-2.21.5-.56,1.15-.99,1.93-1.3.79-.31,1.67-.51,2.63-.61.97-.1,1.91-.15,2.83-.15v-.2c0-.63-.22-1.09-.66-1.39-.44-.3-.98-.45-1.63-.45-.59,0-1.17.13-1.72.38-.55.25-1.02.56-1.41.92l-2.11-2.27ZM25.78,151.1h-.53c-.46,0-.92.02-1.39.06-.47.04-.88.12-1.25.24-.37.12-.67.29-.9.52-.24.23-.36.53-.36.9,0,.24.05.44.17.61.11.17.25.31.42.41.17.1.36.17.59.22.22.04.43.06.64.06.85,0,1.5-.23,1.95-.7.45-.47.67-1.1.67-1.9v-.43Z"/>
    <path class="cls-2" d="M46.14,155.42c0,1.24-.18,2.32-.53,3.23-.36.92-.86,1.68-1.5,2.28-.65.6-1.43,1.05-2.35,1.35-.93.3-1.95.45-3.07.45s-2.27-.17-3.45-.51c-1.18-.34-2.2-.83-3.07-1.48l2.09-2.98c.61.54,1.29.95,2.02,1.21.74.26,1.46.39,2.18.39,1.22,0,2.13-.32,2.71-.97.59-.64.88-1.5.88-2.57v-.76h-.08c-.39.51-.92.92-1.58,1.22-.66.31-1.42.46-2.27.46-.97,0-1.82-.17-2.57-.52-.75-.35-1.38-.82-1.9-1.41-.52-.59-.91-1.29-1.18-2.07-.27-.79-.41-1.62-.41-2.51s.14-1.72.41-2.52c.27-.8.67-1.5,1.18-2.11.52-.61,1.15-1.1,1.9-1.46.75-.36,1.59-.55,2.55-.55.8,0,1.56.16,2.29.48.73.32,1.31.82,1.76,1.5h.05v-1.63h3.95v11.48ZM42.17,150.21c0-.42-.07-.83-.22-1.22-.14-.39-.35-.73-.62-1.03-.27-.3-.59-.53-.97-.7-.37-.17-.8-.25-1.27-.25s-.9.09-1.26.25c-.37.17-.67.4-.93.69-.25.29-.45.63-.59,1.02-.14.39-.2.81-.2,1.25s.07.83.2,1.22c.14.39.33.73.59,1.03.25.3.56.53.93.71.36.18.78.27,1.26.27s.9-.09,1.29-.27c.38-.18.7-.41.97-.7.26-.29.47-.63.61-1.02.14-.39.22-.81.22-1.25Z"/>
    <path class="cls-2" d="M49.5,156.62v-19.24h4.25v19.24h-4.25Z"/>
    <path class="cls-2" d="M61.57,139.9c0,.32-.06.62-.19.9-.13.28-.3.52-.51.73-.21.2-.47.37-.76.48-.3.12-.61.18-.93.18-.68,0-1.25-.22-1.71-.67-.46-.45-.69-.99-.69-1.62,0-.31.06-.6.18-.88.12-.28.29-.52.51-.73.22-.2.47-.37.76-.5.29-.13.6-.19.94-.19s.63.06.93.18c.3.12.55.28.76.48.21.2.38.45.51.73.13.28.19.58.19.9ZM57.09,156.62v-12.68h4.17v12.68h-4.17Z"/>
    <path class="cls-2" d="M78.01,150.23c0,1.04-.19,1.97-.56,2.81-.37.84-.88,1.55-1.53,2.14-.65.59-1.39,1.04-2.24,1.36-.85.32-1.76.48-2.72.48s-1.85-.16-2.71-.48c-.86-.32-1.6-.78-2.24-1.36s-1.14-1.3-1.51-2.14c-.37-.84-.56-1.78-.56-2.81s.19-1.97.56-2.8c.37-.83.88-1.54,1.51-2.11.64-.58,1.38-1.02,2.24-1.32.86-.31,1.76-.46,2.71-.46s1.87.15,2.72.46c.85.31,1.59.75,2.24,1.32.64.58,1.15,1.28,1.53,2.11.37.83.56,1.76.56,2.8ZM73.99,150.23c0-.41-.07-.81-.2-1.2-.14-.39-.33-.73-.59-1.03-.25-.3-.57-.54-.94-.73-.37-.19-.81-.28-1.3-.28s-.93.09-1.3.28c-.37.19-.68.43-.93.73-.25.3-.43.64-.56,1.03-.13.39-.19.79-.19,1.2s.06.81.19,1.2c.13.39.32.74.57,1.06.25.31.57.56.94.75.37.19.81.28,1.3.28s.92-.09,1.3-.28c.37-.19.69-.44.94-.75.25-.31.45-.67.57-1.06.13-.39.19-.79.19-1.2Z"/>
    <path class="cls-1" d="M93.61,156.62l-1.71-1.76c-.58.61-1.29,1.12-2.13,1.51s-1.89.6-3.14.6c-.81,0-1.61-.11-2.39-.32-.78-.21-1.47-.54-2.07-.99-.6-.45-1.09-1.01-1.45-1.68-.36-.67-.55-1.46-.55-2.38,0-.63.1-1.2.31-1.73.2-.53.48-.99.83-1.4.35-.41.75-.76,1.21-1.07.46-.31.93-.57,1.43-.79-.56-.54-1.01-1.14-1.35-1.78-.34-.64-.51-1.36-.51-2.14s.17-1.51.51-2.09c.34-.58.78-1.05,1.31-1.43.53-.37,1.14-.64,1.81-.81.67-.17,1.34-.25,2-.25s1.35.09,2.01.27c.66.18,1.25.45,1.77.83.52.37.93.85,1.25,1.43.31.58.47,1.26.47,2.06,0,.58-.09,1.1-.28,1.57-.19.47-.45.89-.78,1.27-.33.38-.72.73-1.16,1.03-.44.31-.91.59-1.4.84l2.27,2.32,1.81-2.77h4.63l-3.89,5.22,4.48,4.45h-5.27ZM86.26,149.01c-.51.2-.95.49-1.34.85-.38.37-.57.89-.57,1.57,0,.36.07.67.22.95.14.28.33.52.56.71.23.2.49.34.78.45.29.1.59.15.89.15.56,0,1.06-.12,1.5-.36.44-.24.82-.58,1.15-1.02l-3.18-3.31ZM89.46,142.82c0-.46-.15-.85-.46-1.17-.31-.32-.72-.48-1.25-.48-.49,0-.9.16-1.23.47-.33.31-.5.71-.5,1.18,0,.42.11.83.34,1.22.23.39.56.76,1.01,1.12.58-.24,1.07-.55,1.48-.94.41-.39.61-.86.61-1.4Z"/>
    <path class="cls-2" d="M114.43,144.15c0,1.05-.2,1.94-.59,2.66-.39.72-.92,1.3-1.58,1.74-.66.44-1.43.76-2.29.97-.87.2-1.76.31-2.7.31h-2.16v6.8h-4.35v-18.02h6.62c.98,0,1.9.1,2.76.29.86.2,1.6.51,2.24.94.64.43,1.14,1,1.5,1.71.36.7.55,1.57.55,2.61ZM110.08,144.17c0-.42-.09-.77-.25-1.04-.17-.27-.4-.48-.69-.64-.29-.15-.62-.25-.98-.31-.37-.05-.74-.08-1.13-.08h-1.91v4.25h1.83c.41,0,.8-.03,1.17-.1.37-.07.71-.19,1.01-.36.3-.17.53-.39.7-.67.17-.28.25-.63.25-1.06Z"/>
    <path class="cls-2" d="M115.45,145.67c.75-.71,1.62-1.25,2.61-1.6.99-.36,2.01-.53,3.04-.53s1.97.13,2.71.39c.74.26,1.34.67,1.79,1.22.46.55.79,1.25,1.01,2.09.21.84.32,1.84.32,2.99v6.39h-3.82v-1.35h-.08c-.32.53-.81.93-1.46,1.22-.65.29-1.36.43-2.13.43-.51,0-1.04-.07-1.58-.2-.54-.14-1.04-.36-1.49-.66-.45-.31-.82-.71-1.11-1.22-.29-.51-.43-1.14-.43-1.88,0-.92.25-1.65.75-2.21.5-.56,1.15-.99,1.93-1.3.79-.31,1.67-.51,2.63-.61.97-.1,1.91-.15,2.83-.15v-.2c0-.63-.22-1.09-.66-1.39-.44-.3-.98-.45-1.63-.45-.59,0-1.17.13-1.72.38-.55.25-1.02.56-1.41.92l-2.11-2.27ZM123.11,151.1h-.53c-.46,0-.92.02-1.39.06-.47.04-.88.12-1.25.24-.37.12-.67.29-.9.52-.24.23-.36.53-.36.9,0,.24.05.44.17.61.11.17.25.31.42.41.17.1.36.17.59.22.22.04.43.06.64.06.85,0,1.5-.23,1.95-.7.45-.47.67-1.1.67-1.9v-.43Z"/>
    <path class="cls-2" d="M138.25,147.38c-.19-.05-.37-.08-.55-.1-.18-.02-.35-.03-.52-.03-.56,0-1.03.1-1.41.3-.38.2-.69.45-.92.74-.23.29-.39.6-.5.94s-.15.63-.15.89v6.5h-4.17v-12.66h4.02v1.83h.05c.32-.65.78-1.18,1.37-1.59.59-.41,1.28-.62,2.06-.62.17,0,.34,0,.5.03.16.02.29.04.39.08l-.18,3.69Z"/>
    <path class="cls-2" d="M145.15,147.05v4.85c0,.6.11,1.04.34,1.34.23.3.64.45,1.23.45.2,0,.42-.02.65-.05.23-.03.42-.08.57-.15l.05,3.05c-.29.1-.65.19-1.09.27-.44.08-.88.11-1.32.11-.85,0-1.56-.11-2.14-.32-.58-.21-1.04-.52-1.39-.92-.35-.4-.6-.88-.75-1.43-.15-.55-.23-1.17-.23-1.85v-5.36h-2.04v-3.11h2.01v-3.33h4.1v3.33h2.98v3.11h-2.98Z"/>
    <path class="cls-2" d="M157.65,156.62v-6.92c0-.36-.03-.7-.09-1.02-.06-.32-.16-.61-.29-.85-.14-.25-.33-.44-.57-.59-.25-.14-.56-.22-.93-.22s-.7.07-.98.22c-.28.14-.51.34-.7.6-.19.25-.33.55-.42.88-.09.33-.14.67-.14,1.03v6.87h-4.2v-12.68h4.05v1.76h.05c.15-.27.35-.54.6-.8.25-.26.53-.49.87-.67.33-.19.69-.34,1.08-.46.39-.12.81-.18,1.25-.18.85,0,1.57.15,2.16.46.59.31,1.07.7,1.44,1.18.36.48.63,1.04.79,1.67.16.63.24,1.26.24,1.88v7.84h-4.2Z"/>
    <path class="cls-2" d="M177.58,150.43v.51c0,.17,0,.33-.03.48h-9.19c.03.36.14.68.32.97.18.29.41.54.69.75.28.21.59.38.94.5.35.12.71.18,1.08.18.66,0,1.22-.12,1.68-.37.46-.25.83-.56,1.12-.95l2.9,1.83c-.59.87-1.38,1.53-2.35,2-.98.47-2.11.7-3.4.7-.95,0-1.85-.15-2.7-.45-.85-.3-1.59-.73-2.23-1.3-.64-.57-1.14-1.27-1.5-2.1-.37-.83-.55-1.78-.55-2.85s.18-1.97.53-2.81c.36-.84.84-1.55,1.45-2.14.61-.59,1.33-1.04,2.16-1.36.83-.32,1.73-.48,2.7-.48s1.79.16,2.57.47c.78.31,1.45.77,2.01,1.36.56.59,1,1.32,1.31,2.16.31.85.47,1.82.47,2.9ZM173.73,148.83c0-.66-.21-1.23-.62-1.71-.42-.47-1.04-.71-1.87-.71-.41,0-.78.06-1.12.19-.34.13-.64.3-.89.52-.25.22-.46.48-.61.78-.15.3-.24.61-.25.93h5.37Z"/>
    <path class="cls-2" d="M188.39,147.38c-.19-.05-.37-.08-.55-.1-.18-.02-.35-.03-.52-.03-.56,0-1.03.1-1.41.3-.38.2-.69.45-.92.74-.23.29-.39.6-.5.94s-.15.63-.15.89v6.5h-4.17v-12.66h4.02v1.83h.05c.32-.65.78-1.18,1.37-1.59.59-.41,1.28-.62,2.06-.62.17,0,.34,0,.5.03.16.02.29.04.39.08l-.18,3.69Z"/>
    <path class="cls-2" d="M197.71,147.69c-.34-.32-.74-.59-1.2-.81-.46-.22-.94-.33-1.45-.33-.39,0-.75.08-1.08.23-.33.15-.5.42-.5.79s.18.61.55.76c.36.15.95.32,1.77.51.47.1.95.25,1.44.43.48.19.92.43,1.31.74.39.31.7.68.94,1.12.24.44.36.97.36,1.58,0,.8-.16,1.47-.48,2.02-.32.55-.74,1-1.26,1.34-.52.34-1.1.59-1.74.74-.64.15-1.29.23-1.93.23-1.04,0-2.05-.17-3.04-.5-.99-.33-1.82-.82-2.48-1.46l2.34-2.47c.37.41.83.75,1.37,1.02.54.27,1.12.41,1.73.41.34,0,.67-.08,1.01-.24.33-.16.5-.45.5-.85s-.2-.68-.61-.87c-.41-.19-1.04-.38-1.91-.59-.44-.1-.88-.24-1.32-.41-.44-.17-.84-.4-1.18-.69-.35-.29-.63-.64-.85-1.07-.22-.42-.33-.93-.33-1.53,0-.76.16-1.41.48-1.95.32-.53.74-.97,1.25-1.31.51-.34,1.07-.59,1.69-.75.62-.16,1.23-.24,1.85-.24.95,0,1.88.15,2.79.45.91.3,1.68.74,2.3,1.34l-2.29,2.37Z"/>
  </g>
</svg>