<?xml version="1.0" encoding="UTF-8"?>
<svg id="Livello_1" xmlns="http://www.w3.org/2000/svg" xmlns:xlink="http://www.w3.org/1999/xlink" viewBox="0 0 394 320.57">
  <defs>
    <style>
      .cls-1 {
        fill: #009b61;
      }

      .cls-2 {
        fill: #103653;
      }

      .cls-3 {
        fill: url(#Sfumatura_senza_nome_12);
      }

      .cls-4 {
        fill: #fff;
      }
    </style>
    <linearGradient id="Sfumatura_senza_nome_12" data-name="Sfumatura senza nome 12" x1="109.53" y1="161.93" x2="-56.78" y2="161.93" gradientTransform="translate(189.8)" gradientUnits="userSpaceOnUse">
      <stop offset="0" stop-color="#103653"/>
      <stop offset="0" stop-color="#0f3853"/>
      <stop offset=".12" stop-color="#0a5858"/>
      <stop offset=".24" stop-color="#06725c"/>
      <stop offset=".37" stop-color="#03865f"/>
      <stop offset=".52" stop-color="#019561"/>
      <stop offset=".7" stop-color="#009d62"/>
      <stop offset="1" stop-color="#00a063"/>
    </linearGradient>
  </defs>
  <g>
    <path class="cls-2" d="M192.59,171.82c-4.82,2.93-8.7,5.93-11.76,9.01-7.14,7.18-9.85,14.83-9.85,23.14s3.79,14.97,9.85,19.17c3.75,2.61,8.36,4.26,13.49,4.69.9.07,1.82.12,2.75.12,11.34,0,21.61-3.95,30.04-11.07l-19.59-25.58-14.93-19.49Z"/>
    <path class="cls-2" d="M222.9,110.14c0-9.22-6.85-15.02-14.76-15.02-8.43,0-14.76,6.33-14.76,15.28,0,8.44,5.79,16.61,13.71,24.25,12.39-7.38,15.81-15.55,15.81-24.51Z"/>
    <path class="cls-2" d="M385.02,44.32c-5.98-10.88-13.88-19.62-23.69-26.19-9.81-6.58-20.93-11.24-33.37-14-12.45-2.75-25.12-4.12-38.05-4.12h-109.76l-40.19,157.19h-1.44L96.54,0H0l90.08,254.08h80.48c-24.82-7.42-37.54-26.28-37.54-49.06,0-26.89,17.13-43.75,41.64-56.13-10.81-13.18-15.82-23.72-15.82-39.01s8.21-29.48,21.98-37.05c7.45-4.1,16.51-6.44,26.79-6.44,16.56,0,30.54,5.89,39.32,15.91,6.32,7.2,9.96,16.52,9.96,27.32,0,23.19-13.44,34.79-33.73,45.33l25.03,32.41c1.27-2.05,2.7-4.83,3.81-8.27.87-2.74,1.29-4.77,1.51-6.84h36.4c13.16,0,26.02-1.55,38.58-4.66,12.56-3.11,23.69-8.14,33.38-15.08,9.69-6.94,17.45-15.91,23.32-26.92,5.86-11,8.8-24.4,8.8-40.19s-3-30.2-8.97-41.09ZM301.58,102.45c-5.38,3.23-11.3,4.85-17.76,4.85h-17.95v-40.92h17.95c3.11,0,6.22.31,9.32.9,3.11.6,5.93,1.61,8.44,3.05,2.51,1.44,4.48,3.41,5.92,5.93,1.44,2.51,2.15,5.8,2.15,9.87,0,7.66-2.69,13.1-8.07,16.33Z"/>
  </g>
  <path class="cls-3" d="M269.55,215.04c10.28-16.87,14.27-21.7,15.85-42.79h-31.89c-.23,2.06-.64,4.1-1.51,6.84-1.1,3.44-2.54,6.22-3.81,8.27l-25.03-32.41c20.29-10.54,33.73-22.15,33.73-45.33,0-10.8-3.64-20.13-9.96-27.32-8.78-10.02-22.76-15.91-39.32-15.91-10.28,0-19.34,2.35-26.79,6.44-13.76,7.56-21.98,21.14-21.98,37.05s5.01,25.83,15.82,39.01c-24.52,12.39-41.64,29.25-41.64,56.13,0,22.78,12.71,41.64,37.54,49.06,7.35,2.2,15.74,3.4,25.19,3.4,8.38,0,16.41-1.19,23.96-3.4,9.54-2.79,18.32-7.21,26.12-12.95l9.76,12.39h43.75l-29.78-38.48ZM208.14,95.12c7.9,0,14.76,5.8,14.76,15.02s-3.42,17.13-15.81,24.51c-7.91-7.64-13.71-15.81-13.71-24.25,0-8.96,6.33-15.28,14.76-15.28ZM197.07,227.95c-.93,0-1.85-.04-2.75-.12-5.13-.43-9.74-2.08-13.49-4.69-6.06-4.21-9.85-10.94-9.85-19.17s2.71-15.96,9.85-23.14c3.06-3.09,6.94-6.09,11.76-9.01l14.93,19.49,19.59,25.58c-8.43,7.12-18.71,11.07-30.04,11.07Z"/>
  <g>
    <path class="cls-4" d="M22.01,308.54h-8.57L0,273.04h9.63l8.22,25.17h.2l8.17-25.17h9.48l-13.69,35.5Z"/>
    <path class="cls-4" d="M35.7,286.98c1.47-1.4,3.18-2.46,5.14-3.16,1.96-.7,3.95-1.05,5.99-1.05s3.89.26,5.34.78c1.45.52,2.63,1.32,3.54,2.41.9,1.09,1.56,2.46,1.98,4.11.42,1.65.63,3.62.63,5.89v12.59h-7.52v-2.66h-.15c-.64,1.04-1.6,1.84-2.88,2.41-1.29.57-2.68.85-4.19.85-1,0-2.04-.13-3.11-.4-1.07-.27-2.05-.7-2.93-1.3-.89-.6-1.61-1.4-2.18-2.41-.57-1-.85-2.24-.85-3.71,0-1.8.49-3.26,1.48-4.36.99-1.1,2.26-1.96,3.81-2.56,1.55-.6,3.28-1,5.19-1.2,1.91-.2,3.76-.3,5.57-.3v-.4c0-1.24-.44-2.15-1.3-2.73-.87-.58-1.94-.88-3.21-.88-1.17,0-2.3.25-3.38.75-1.09.5-2.01,1.1-2.78,1.81l-4.16-4.46ZM50.79,297.66h-1.05c-.9,0-1.81.04-2.73.13-.92.08-1.74.24-2.46.48-.72.23-1.31.58-1.78,1.03-.47.45-.7,1.05-.7,1.78,0,.47.11.87.33,1.2.22.33.49.6.83.8.33.2.72.34,1.15.43.43.08.85.13,1.25.13,1.67,0,2.95-.46,3.84-1.38.89-.92,1.33-2.16,1.33-3.74v-.85Z"/>
    <path class="cls-4" d="M90.9,306.18c0,2.44-.35,4.56-1.05,6.37-.7,1.81-1.69,3.3-2.96,4.49-1.27,1.19-2.82,2.07-4.64,2.66-1.82.58-3.84.88-6.04.88s-4.47-.33-6.79-1c-2.32-.67-4.34-1.64-6.04-2.91l4.11-5.87c1.2,1.07,2.53,1.86,3.99,2.38,1.45.52,2.88.78,4.29.78,2.41,0,4.19-.64,5.34-1.91,1.15-1.27,1.73-2.96,1.73-5.06v-1.5h-.15c-.77,1-1.81,1.81-3.11,2.41-1.3.6-2.79.9-4.46.9-1.91,0-3.59-.34-5.06-1.03-1.47-.69-2.72-1.61-3.74-2.78-1.02-1.17-1.8-2.53-2.33-4.09-.53-1.55-.8-3.2-.8-4.94s.27-3.39.8-4.96c.53-1.57,1.31-2.96,2.33-4.16,1.02-1.2,2.26-2.16,3.74-2.88,1.47-.72,3.14-1.08,5.01-1.08,1.57,0,3.07.32,4.51.95,1.44.64,2.59,1.62,3.46,2.96h.1v-3.21h7.77v22.61ZM83.08,295.9c0-.84-.14-1.64-.43-2.41-.28-.77-.69-1.45-1.23-2.03-.54-.58-1.17-1.04-1.91-1.38-.74-.33-1.57-.5-2.51-.5s-1.76.17-2.48.5c-.72.33-1.33.79-1.83,1.35-.5.57-.89,1.24-1.15,2.01-.27.77-.4,1.59-.4,2.46s.13,1.64.4,2.41c.27.77.65,1.45,1.15,2.03.5.59,1.11,1.05,1.83,1.4.72.35,1.55.53,2.48.53s1.78-.18,2.53-.53c.75-.35,1.39-.81,1.91-1.38.52-.57.92-1.24,1.2-2.01.28-.77.43-1.59.43-2.46Z"/>
    <path class="cls-4" d="M97.52,308.54v-37.91h8.37v37.91h-8.37Z"/>
    <path class="cls-4" d="M121.29,275.59c0,.64-.13,1.23-.38,1.78-.25.55-.59,1.03-1,1.43-.42.4-.92.72-1.5.95-.59.23-1.2.35-1.83.35-1.34,0-2.46-.44-3.36-1.33-.9-.89-1.35-1.95-1.35-3.18,0-.6.12-1.18.35-1.73.23-.55.57-1.03,1-1.43.43-.4.94-.73,1.5-.98.57-.25,1.19-.38,1.85-.38s1.25.12,1.83.35c.58.23,1.09.55,1.5.95.42.4.75.88,1,1.43.25.55.38,1.15.38,1.78ZM112.46,308.54v-24.97h8.22v24.97h-8.22Z"/>
    <path class="cls-4" d="M153.68,295.95c0,2.04-.37,3.89-1.1,5.54-.74,1.65-1.74,3.06-3.01,4.21-1.27,1.15-2.74,2.05-4.41,2.68-1.67.63-3.46.95-5.36.95s-3.65-.32-5.34-.95c-1.69-.63-3.16-1.53-4.41-2.68-1.25-1.15-2.25-2.56-2.98-4.21-.74-1.65-1.1-3.5-1.1-5.54s.37-3.88,1.1-5.52c.73-1.64,1.73-3.02,2.98-4.16,1.25-1.14,2.72-2.01,4.41-2.61,1.69-.6,3.47-.9,5.34-.9s3.69.3,5.36.9c1.67.6,3.14,1.47,4.41,2.61,1.27,1.14,2.27,2.52,3.01,4.16.74,1.64,1.1,3.48,1.1,5.52ZM145.76,295.95c0-.8-.13-1.59-.4-2.36-.27-.77-.65-1.45-1.15-2.03-.5-.58-1.12-1.06-1.86-1.43-.74-.37-1.59-.55-2.56-.55s-1.82.18-2.56.55c-.74.37-1.35.84-1.83,1.43-.48.59-.85,1.26-1.1,2.03-.25.77-.38,1.55-.38,2.36s.13,1.59.38,2.36c.25.77.63,1.46,1.13,2.08.5.62,1.12,1.11,1.86,1.48.73.37,1.59.55,2.56.55s1.82-.18,2.56-.55c.73-.37,1.35-.86,1.86-1.48.5-.62.88-1.31,1.13-2.08.25-.77.38-1.55.38-2.36Z"/>
    <path class="cls-1" d="M184.41,308.54l-3.36-3.46c-1.14,1.2-2.53,2.2-4.19,2.98s-3.72,1.18-6.19,1.18c-1.6,0-3.18-.21-4.71-.63-1.54-.42-2.9-1.07-4.09-1.96-1.19-.89-2.14-1.99-2.86-3.31-.72-1.32-1.08-2.88-1.08-4.69,0-1.24.2-2.37.6-3.41.4-1.04.94-1.96,1.63-2.76.68-.8,1.48-1.5,2.38-2.11.9-.6,1.84-1.12,2.81-1.55-1.1-1.07-1.99-2.24-2.66-3.51-.67-1.27-1-2.67-1-4.21s.33-2.97,1-4.11c.67-1.14,1.53-2.07,2.58-2.81,1.05-.73,2.24-1.27,3.56-1.6,1.32-.33,2.63-.5,3.94-.5s2.66.18,3.96.53c1.3.35,2.46.89,3.48,1.63,1.02.74,1.84,1.67,2.46,2.81.62,1.14.93,2.49.93,4.06,0,1.14-.18,2.16-.55,3.08-.37.92-.88,1.76-1.53,2.51-.65.75-1.41,1.43-2.28,2.03-.87.6-1.79,1.15-2.76,1.65l4.46,4.56,3.56-5.47h9.13l-7.67,10.28,8.82,8.77h-10.38ZM169.92,293.54c-1,.4-1.88.96-2.63,1.68-.75.72-1.13,1.75-1.13,3.08,0,.7.14,1.33.43,1.88.28.55.65,1.02,1.1,1.4.45.38.96.68,1.53.88.57.2,1.15.3,1.75.3,1.1,0,2.09-.23,2.96-.7.87-.47,1.62-1.14,2.26-2.01l-6.27-6.52ZM176.24,281.36c0-.9-.3-1.67-.9-2.31-.6-.63-1.42-.95-2.46-.95-.97,0-1.78.31-2.43.93-.65.62-.98,1.4-.98,2.33,0,.84.23,1.64.68,2.41.45.77,1.11,1.5,1.98,2.21,1.14-.47,2.11-1.09,2.91-1.86.8-.77,1.2-1.69,1.2-2.76Z"/>
    <path class="cls-4" d="M225.43,283.97c0,2.07-.38,3.82-1.15,5.24-.77,1.42-1.81,2.57-3.11,3.43-1.3.87-2.81,1.5-4.51,1.91-1.7.4-3.48.6-5.31.6h-4.26v13.39h-8.57v-35.5h13.04c1.94,0,3.75.19,5.44.58,1.69.38,3.16,1,4.41,1.86,1.25.85,2.24,1.97,2.96,3.36.72,1.39,1.08,3.1,1.08,5.14ZM216.85,284.02c0-.84-.17-1.52-.5-2.06-.33-.53-.79-.95-1.35-1.25-.57-.3-1.21-.5-1.93-.6-.72-.1-1.46-.15-2.23-.15h-3.76v8.37h3.61c.8,0,1.57-.07,2.31-.2.73-.13,1.4-.37,1.98-.7.58-.33,1.04-.78,1.38-1.33.33-.55.5-1.24.5-2.08Z"/>
    <path class="cls-4" d="M227.43,286.98c1.47-1.4,3.18-2.46,5.14-3.16,1.96-.7,3.95-1.05,5.99-1.05s3.89.26,5.34.78c1.45.52,2.63,1.32,3.54,2.41.9,1.09,1.56,2.46,1.98,4.11.42,1.65.63,3.62.63,5.89v12.59h-7.52v-2.66h-.15c-.64,1.04-1.6,1.84-2.88,2.41-1.29.57-2.68.85-4.19.85-1,0-2.04-.13-3.11-.4-1.07-.27-2.05-.7-2.93-1.3-.89-.6-1.61-1.4-2.18-2.41-.57-1-.85-2.24-.85-3.71,0-1.8.49-3.26,1.48-4.36.99-1.1,2.26-1.96,3.81-2.56,1.55-.6,3.28-1,5.19-1.2,1.91-.2,3.76-.3,5.57-.3v-.4c0-1.24-.44-2.15-1.3-2.73-.87-.58-1.94-.88-3.21-.88-1.17,0-2.3.25-3.38.75-1.09.5-2.01,1.1-2.78,1.81l-4.16-4.46ZM242.52,297.66h-1.05c-.9,0-1.81.04-2.73.13-.92.08-1.74.24-2.46.48-.72.23-1.31.58-1.78,1.03-.47.45-.7,1.05-.7,1.78,0,.47.11.87.33,1.2.22.33.49.6.83.8.33.2.72.34,1.15.43.43.08.85.13,1.25.13,1.67,0,2.95-.46,3.84-1.38.89-.92,1.33-2.16,1.33-3.74v-.85Z"/>
    <path class="cls-4" d="M272.36,290.34c-.37-.1-.73-.17-1.08-.2-.35-.03-.69-.05-1.03-.05-1.1,0-2.03.2-2.78.6-.75.4-1.35.88-1.81,1.45-.45.57-.78,1.18-.98,1.85s-.3,1.25-.3,1.75v12.8h-8.22v-24.94h7.92v3.61h.1c.63-1.28,1.54-2.32,2.71-3.13,1.17-.81,2.52-1.21,4.06-1.21.33,0,.66.02.98.05.32.03.58.08.78.15l-.35,7.27Z"/>
    <path class="cls-4" d="M285.95,289.68v9.56c0,1.17.23,2.05.68,2.64.45.59,1.26.88,2.43.88.4,0,.83-.03,1.28-.1.45-.07.83-.17,1.13-.3l.1,6.02c-.57.2-1.29.38-2.16.53-.87.15-1.74.23-2.61.23-1.67,0-3.08-.21-4.21-.63-1.14-.42-2.05-1.02-2.73-1.81-.69-.79-1.18-1.73-1.48-2.82-.3-1.09-.45-2.3-.45-3.64v-10.56h-4.01v-6.12h3.96v-6.57h8.07v6.57h5.87v6.12h-5.87Z"/>
    <path class="cls-4" d="M310.56,308.54v-13.64c0-.7-.06-1.37-.18-2.01-.12-.63-.31-1.19-.58-1.68-.27-.48-.64-.87-1.13-1.15-.49-.28-1.1-.43-1.83-.43s-1.38.14-1.93.43c-.55.28-1.01.68-1.38,1.18-.37.5-.64,1.08-.83,1.73-.18.65-.28,1.33-.28,2.03v13.54h-8.27v-24.97h7.97v3.46h.1c.3-.53.69-1.06,1.18-1.58.48-.52,1.05-.96,1.7-1.33.65-.37,1.36-.67,2.13-.9.77-.23,1.59-.35,2.46-.35,1.67,0,3.09.3,4.26.9,1.17.6,2.11,1.38,2.83,2.33.72.95,1.24,2.05,1.55,3.28.32,1.24.48,2.47.48,3.71v15.44h-8.27Z"/>
    <path class="cls-4" d="M349.82,296.35v1c0,.33-.02.65-.05.95h-18.1c.07.7.28,1.34.63,1.91.35.57.8,1.06,1.35,1.48.55.42,1.17.74,1.86.98.68.23,1.4.35,2.13.35,1.3,0,2.41-.24,3.31-.73.9-.48,1.64-1.11,2.21-1.88l5.72,3.61c-1.17,1.7-2.72,3.02-4.64,3.94-1.92.92-4.15,1.38-6.69,1.38-1.87,0-3.64-.29-5.31-.88-1.67-.58-3.13-1.44-4.39-2.56-1.25-1.12-2.24-2.5-2.96-4.14-.72-1.64-1.08-3.51-1.08-5.62s.35-3.89,1.05-5.54c.7-1.65,1.65-3.06,2.86-4.21,1.2-1.15,2.62-2.05,4.26-2.68,1.64-.63,3.41-.95,5.31-.95s3.53.31,5.06.93c1.54.62,2.86,1.51,3.96,2.68,1.1,1.17,1.96,2.59,2.58,4.26.62,1.67.93,3.58.93,5.72ZM342.25,293.19c0-1.3-.41-2.42-1.23-3.36-.82-.94-2.05-1.4-3.69-1.4-.8,0-1.54.13-2.21.38-.67.25-1.25.59-1.76,1.03-.5.43-.9.94-1.2,1.53-.3.59-.47,1.2-.5,1.83h10.58Z"/>
    <path class="cls-4" d="M371.13,290.34c-.37-.1-.73-.17-1.08-.2-.35-.03-.69-.05-1.03-.05-1.1,0-2.03.2-2.78.6-.75.4-1.35.88-1.81,1.45-.45.57-.78,1.18-.98,1.85-.2.67-.3,1.25-.3,1.75v12.8h-8.22v-24.94h7.92v3.61h.1c.63-1.28,1.54-2.32,2.71-3.13,1.17-.81,2.52-1.21,4.06-1.21.33,0,.66.02.98.05.32.03.58.08.78.15l-.35,7.27Z"/>
    <path class="cls-4" d="M389.48,290.94c-.67-.63-1.45-1.17-2.36-1.6-.9-.43-1.85-.65-2.86-.65-.77,0-1.48.15-2.13.45-.65.3-.98.82-.98,1.55s.36,1.2,1.08,1.5c.72.3,1.88.64,3.48,1,.94.2,1.88.48,2.83.85.95.37,1.81.85,2.58,1.45.77.6,1.39,1.34,1.86,2.21.47.87.7,1.91.7,3.11,0,1.57-.32,2.9-.95,3.99-.64,1.09-1.46,1.96-2.48,2.63-1.02.67-2.16,1.15-3.43,1.45-1.27.3-2.54.45-3.81.45-2.04,0-4.04-.33-5.99-.98-1.96-.65-3.58-1.61-4.89-2.88l4.61-4.86c.73.8,1.64,1.47,2.71,2.01,1.07.54,2.21.8,3.41.8.67,0,1.33-.16,1.98-.48.65-.32.98-.88.98-1.68s-.4-1.34-1.2-1.7c-.8-.37-2.06-.75-3.76-1.15-.87-.2-1.74-.47-2.61-.8-.87-.33-1.65-.78-2.33-1.35-.69-.57-1.25-1.27-1.68-2.11-.43-.84-.65-1.84-.65-3.01,0-1.5.32-2.78.95-3.84.63-1.05,1.45-1.91,2.46-2.58,1-.67,2.11-1.16,3.33-1.48,1.22-.32,2.43-.48,3.64-.48,1.87,0,3.7.29,5.49.88,1.79.59,3.3,1.46,4.54,2.63l-4.51,4.66Z"/>
  </g>
</svg>