<?xml version="1.0" encoding="UTF-8"?>
<svg id="Livello_1" xmlns="http://www.w3.org/2000/svg" xmlns:xlink="http://www.w3.org/1999/xlink" viewBox="0 0 394 257.48">
  <defs>
    <style>
      .cls-1 {
        fill: #103653;
      }

      .cls-2 {
        fill: url(#Sfumatura_senza_nome_12);
      }
    </style>
    <linearGradient id="Sfumatura_senza_nome_12" data-name="Sfumatura senza nome 12" x1="109.53" y1="161.93" x2="-56.78" y2="161.93" gradientTransform="translate(189.8)" gradientUnits="userSpaceOnUse">
      <stop offset="0" stop-color="#103653"/>
      <stop offset="0" stop-color="#0f3853"/>
      <stop offset=".12" stop-color="#0a5858"/>
      <stop offset=".24" stop-color="#06725c"/>
      <stop offset=".37" stop-color="#03865f"/>
      <stop offset=".52" stop-color="#019561"/>
      <stop offset=".7" stop-color="#009d62"/>
      <stop offset="1" stop-color="#00a063"/>
    </linearGradient>
  </defs>
  <g>
    <path class="cls-1" d="M192.59,171.82c-4.82,2.93-8.7,5.93-11.76,9.01-7.14,7.18-9.85,14.83-9.85,23.14s3.79,14.97,9.85,19.17c3.75,2.61,8.36,4.26,13.49,4.69.9.07,1.82.12,2.75.12,11.34,0,21.61-3.95,30.04-11.07l-19.59-25.58-14.93-19.49Z"/>
    <path class="cls-1" d="M222.9,110.14c0-9.22-6.85-15.02-14.76-15.02-8.43,0-14.76,6.33-14.76,15.28,0,8.44,5.79,16.61,13.71,24.25,12.39-7.38,15.81-15.55,15.81-24.51Z"/>
    <path class="cls-1" d="M385.02,44.32c-5.98-10.88-13.88-19.62-23.69-26.19-9.81-6.58-20.93-11.24-33.37-14-12.45-2.75-25.12-4.12-38.05-4.12h-109.76l-40.19,157.19h-1.44L96.54,0H0l90.08,254.08h80.48c-24.82-7.42-37.54-26.28-37.54-49.06,0-26.89,17.13-43.75,41.64-56.13-10.81-13.18-15.82-23.72-15.82-39.01s8.21-29.48,21.98-37.05c7.45-4.1,16.51-6.44,26.79-6.44,16.56,0,30.54,5.89,39.32,15.91,6.32,7.2,9.96,16.52,9.96,27.32,0,23.19-13.44,34.79-33.73,45.33l25.03,32.41c1.27-2.05,2.7-4.83,3.81-8.27.87-2.74,1.29-4.77,1.51-6.84h36.4c13.16,0,26.02-1.55,38.58-4.66,12.56-3.11,23.69-8.14,33.38-15.08,9.69-6.94,17.45-15.91,23.32-26.92,5.86-11,8.8-24.4,8.8-40.19s-3-30.2-8.97-41.09ZM301.58,102.45c-5.38,3.23-11.3,4.85-17.76,4.85h-17.95v-40.92h17.95c3.11,0,6.22.31,9.32.9,3.11.6,5.93,1.61,8.44,3.05,2.51,1.44,4.48,3.41,5.92,5.93,1.44,2.51,2.15,5.8,2.15,9.87,0,7.66-2.69,13.1-8.07,16.33Z"/>
  </g>
  <path class="cls-2" d="M269.55,215.04c10.28-16.87,14.27-21.7,15.85-42.79h-31.89c-.23,2.06-.64,4.1-1.51,6.84-1.1,3.44-2.54,6.22-3.81,8.27l-25.03-32.41c20.29-10.54,33.73-22.15,33.73-45.33,0-10.8-3.64-20.13-9.96-27.32-8.78-10.02-22.76-15.91-39.32-15.91-10.28,0-19.34,2.35-26.79,6.44-13.76,7.56-21.98,21.14-21.98,37.05s5.01,25.83,15.82,39.01c-24.52,12.39-41.64,29.25-41.64,56.13,0,22.78,12.71,41.64,37.54,49.06,7.35,2.2,15.74,3.4,25.19,3.4,8.38,0,16.41-1.19,23.96-3.4,9.54-2.79,18.32-7.21,26.12-12.95l9.76,12.39h43.75l-29.78-38.48ZM208.14,95.12c7.9,0,14.76,5.8,14.76,15.02s-3.42,17.13-15.81,24.51c-7.91-7.64-13.71-15.81-13.71-24.25,0-8.96,6.33-15.28,14.76-15.28ZM197.07,227.95c-.93,0-1.85-.04-2.75-.12-5.13-.43-9.74-2.08-13.49-4.69-6.06-4.21-9.85-10.94-9.85-19.17s2.71-15.96,9.85-23.14c3.06-3.09,6.94-6.09,11.76-9.01l14.93,19.49,19.59,25.58c-8.43,7.12-18.71,11.07-30.04,11.07Z"/>
</svg>