<?xml version="1.0" encoding="UTF-8"?>
<svg id="Livello_1" xmlns="http://www.w3.org/2000/svg" xmlns:xlink="http://www.w3.org/1999/xlink" viewBox="0 0 250 165.11">
  <defs>
    <style>
      .cls-1 {
        fill: #fff;
      }

      .cls-2 {
        fill: url(#Sfumatura_senza_nome_5);
      }
    </style>
    <linearGradient id="Sfumatura_senza_nome_5" data-name="Sfumatura senza nome 5" x1=".14" y1="103.84" x2="-105.39" y2="103.84" gradientTransform="translate(189.8)" gradientUnits="userSpaceOnUse">
      <stop offset="0" stop-color="#103653" stop-opacity="0"/>
      <stop offset="0" stop-color="#0f3653" stop-opacity="0"/>
      <stop offset=".11" stop-color="#0b5157" stop-opacity=".27"/>
      <stop offset=".23" stop-color="#08685a" stop-opacity=".49"/>
      <stop offset=".35" stop-color="#057b5d" stop-opacity=".68"/>
      <stop offset=".48" stop-color="#02895f" stop-opacity=".82"/>
      <stop offset=".62" stop-color="#019460" stop-opacity=".92"/>
      <stop offset=".78" stop-color="#009a61" stop-opacity=".98"/>
      <stop offset="1" stop-color="#009c62"/>
    </linearGradient>
  </defs>
  <g>
    <path class="cls-1" d="M122.2,110.18c-3.06,1.88-5.52,3.8-7.46,5.78-4.53,4.6-6.25,9.51-6.25,14.84s2.4,9.6,6.25,12.3c2.38,1.68,5.31,2.73,8.56,3.01.57.05,1.15.07,1.75.07,7.19,0,13.71-2.53,19.06-7.1l-12.43-16.4-9.48-12.5Z"/>
    <path class="cls-1" d="M141.43,70.63c0-5.91-4.35-9.64-9.36-9.64-5.35,0-9.36,4.06-9.36,9.8,0,5.41,3.68,10.65,8.7,15.55,7.86-4.73,10.03-9.97,10.03-15.72Z"/>
    <path class="cls-1" d="M244.31,28.42c-3.8-6.98-8.81-12.58-15.03-16.8-6.22-4.22-13.28-7.21-21.18-8.98-7.9-1.76-15.94-2.64-24.14-2.64h-69.64l-25.5,100.8h-.92L61.25,0H0l57.16,162.93h51.06c-15.75-4.76-23.82-16.85-23.82-31.46,0-17.24,10.87-28.05,26.42-36-6.86-8.45-10.04-15.21-10.04-25.02s5.21-18.91,13.95-23.76c4.72-2.63,10.48-4.13,17-4.13,10.51,0,19.38,3.78,24.95,10.2,4.01,4.61,6.32,10.59,6.32,17.52,0,14.87-8.53,22.31-21.4,29.07l15.88,20.78c.81-1.32,1.72-3.1,2.42-5.3.55-1.76.82-3.06.96-4.38h23.1c8.35,0,16.51-1,24.48-2.99,7.97-2,15.03-5.22,21.18-9.67,6.15-4.45,11.07-10.2,14.8-17.26,3.72-7.06,5.58-15.65,5.58-25.77s-1.9-19.37-5.69-26.35ZM191.36,65.7c-3.42,2.07-7.17,3.11-11.27,3.11h-11.39v-26.24h11.39c1.97,0,3.95.2,5.92.58,1.98.39,3.76,1.03,5.35,1.95,1.59.92,2.84,2.19,3.76,3.8.91,1.61,1.37,3.72,1.37,6.33,0,4.91-1.71,8.4-5.12,10.47Z"/>
  </g>
  <path class="cls-2" d="M171.03,137.9c6.53-10.82,9.06-13.92,10.06-27.44h-20.23c-.14,1.32-.41,2.63-.96,4.38-.7,2.21-1.61,3.99-2.42,5.3l-15.88-20.78c12.88-6.76,21.4-14.2,21.4-29.07,0-6.93-2.31-12.91-6.32-17.52-5.57-6.42-14.44-10.2-24.95-10.2-6.52,0-12.27,1.5-17,4.13-8.73,4.85-13.95,13.56-13.95,23.76s3.18,16.57,10.04,25.02c-15.56,7.94-26.42,18.76-26.42,36,0,14.61,8.07,26.7,23.82,31.46,4.66,1.41,9.99,2.18,15.98,2.18,5.32,0,10.41-.76,15.2-2.18,6.05-1.79,11.63-4.62,16.57-8.3l6.19,7.94h27.76l-18.9-24.68ZM132.07,61c5.02,0,9.36,3.72,9.36,9.64s-2.17,10.98-10.03,15.72c-5.02-4.9-8.7-10.14-8.7-15.55,0-5.74,4.01-9.8,9.36-9.8ZM125.04,146.18c-.59,0-1.18-.03-1.75-.08-3.25-.28-6.18-1.33-8.56-3.01-3.85-2.7-6.25-7.02-6.25-12.3s1.72-10.23,6.25-14.84c1.94-1.98,4.4-3.9,7.46-5.78l9.48,12.5,12.43,16.4c-5.35,4.57-11.87,7.1-19.06,7.1Z"/>
</svg>